HIERARCHY
ROOT Hips
{
  OFFSET 0.000000 0.000000 0.000000
  CHANNELS 6 Xposition Yposition Zposition Xrotation Yrotation Zrotation
  JOINT Spine
  {
    OFFSET 0.211591 24.227834 -3.764787
    CHANNELS 3 Xrotation Yrotation Zrotation
    JOINT Chest
    {
      OFFSET 0.211591 24.227834 -3.764787
      CHANNELS 3 Xrotation Yrotation Zrotation
      JOINT Neck
      {
        OFFSET -1.100772 8.441563 -3.430650
        CHANNELS 3 Xrotation Yrotation Zrotation
        JOINT Head
        {
          OFFSET -1.192129 7.757112 -7.601908
          CHANNELS 3 Xrotation Yrotation Zrotation
          End Site
          {
            OFFSET -0.357639 2.327134 -2.280572
          }
        }
      }
      JOINT LeftShoulder
      {
        OFFSET 17.192089 0.613400 -1.554494
        CHANNELS 3 Xrotation Yrotation Zrotation
        JOINT LeftArm
        {
          OFFSET 6.822346 -20.001605 -11.416031
          CHANNELS 3 Xrotation Yrotation Zrotation
          JOINT LeftForeArm
          {
            OFFSET -10.811707 -3.287858 -20.004664
            CHANNELS 3 Xrotation Yrotation Zrotation
            JOINT LeftHand
            {
              OFFSET -2.972239 -0.032078 -2.791873
              CHANNELS 3 Xrotation Yrotation Zrotation
              End Site
              {
                OFFSET -0.891672 -0.009623 -0.837562
              }
            }
          }
        }
      }
      JOINT RightShoulder
      {
        OFFSET -17.192089 -0.613400 1.554494
        CHANNELS 3 Xrotation Yrotation Zrotation
        JOINT RightArm
        {
          OFFSET -7.078612 -20.128798 -9.457155
          CHANNELS 3 Xrotation Yrotation Zrotation
          JOINT RightForeArm
          {
            OFFSET 6.068787 -1.370308 -22.325569
            CHANNELS 3 Xrotation Yrotation Zrotation
            JOINT RightHand
            {
              OFFSET 2.627653 0.279547 -3.282648
              CHANNELS 3 Xrotation Yrotation Zrotation
              End Site
              {
                OFFSET 0.788296 0.083864 -0.984794
              }
            }
          }
        }
      }
    }
  }
  JOINT LeftUpLeg
  {
    OFFSET 11.367086 0.027478 -2.758015
    CHANNELS 3 Xrotation Yrotation Zrotation
    JOINT LeftLeg
    {
      OFFSET 2.451199 -39.057141 -4.768226
      CHANNELS 3 Xrotation Yrotation Zrotation
      JOINT LeftFoot
      {
        OFFSET 10.058204 -39.973237 0.774249
        CHANNELS 3 Xrotation Yrotation Zrotation
        End Site
        {
          OFFSET 3.017461 -11.991971 0.232275
        }
      }
    }
  }
  JOINT RightUpLeg
  {
    OFFSET -11.367086 -0.027478 2.758015
    CHANNELS 3 Xrotation Yrotation Zrotation
    JOINT RightLeg
    {
      OFFSET -4.668361 -37.080477 -5.635053
      CHANNELS 3 Xrotation Yrotation Zrotation
      JOINT RightFoot
      {
        OFFSET -2.542494 -41.040053 5.594103
        CHANNELS 3 Xrotation Yrotation Zrotation
        End Site
        {
          OFFSET -0.762748 -12.312016 1.678231
        }
      }
    }
  }
}
MOTION
Frames: 8
Frame Time: 0.083333
6.360846 60.000000 18.258120 -1.205293 -0.044639 -0.235813 -1.205293 -0.044639 -0.235813 167.869536 6.130025 89.314118 -24.624970 -19.277723 -8.109355 115.009846 12.352187 67.741479 27.492183 -17.076446 30.766261 24.391074 -6.332087 -2.499652 0.000000 0.000000 0.000000 0.000000 0.000000 0.000000 19.855172 -9.528988 2.325804 9.503021 -4.445086 0.462923 141.866734 -43.202785 -122.837559 0.000000 0.000000 0.000000 17.225727 -1.076174 7.804128 2.768143 0.630080 10.639571 0.000000 0.000000 0.000000 -17.588373 2.183490 -4.873352 -15.239875 0.931702 -0.109140 0.000000 0.000000 0.000000
4.930019 60.000000 19.197261 -2.439222 -0.519042 -3.002252 -2.439222 -0.519042 -3.002252 166.670110 8.335346 101.674369 -23.104003 -24.579323 -11.730002 101.686852 22.052956 58.867499 25.953268 -12.273298 22.808763 27.975285 -5.702110 -2.934605 0.000000 0.000000 0.000000 0.000000 0.000000 0.000000 20.316532 -14.205616 8.681896 6.161498 -5.478651 0.389895 0.000000 0.000000 0.000000 0.000000 0.000000 0.000000 23.457039 -1.253388 8.168826 0.488998 0.274236 10.358615 0.000000 0.000000 0.000000 -17.751657 2.156188 -8.380991 -22.313856 1.086544 -0.504774 0.000000 0.000000 0.000000
3.747599 60.000000 14.963378 -2.923228 -0.780750 -4.435576 -2.923228 -0.780750 -4.435576 167.662789 9.269099 110.130847 -24.748981 -28.174766 -13.178227 101.245688 20.442636 54.958292 5.461069 -1.867217 5.649665 34.039037 -4.127469 -3.760059 0.000000 0.000000 0.000000 0.000000 0.000000 0.000000 12.385127 -12.433741 11.753806 8.218318 -5.308465 0.404683 0.000000 0.000000 0.000000 0.000000 0.000000 0.000000 28.628179 -1.385610 8.398183 -0.055269 0.199900 10.256069 0.000000 0.000000 0.000000 -20.129271 2.274717 -8.111575 -28.793846 0.129195 -4.295439 0.000000 0.000000 0.000000
2.581564 60.000000 8.651485 -1.789860 -0.713338 -4.232385 -1.789860 -0.713338 -4.232385 170.105112 5.657780 75.315609 -24.607271 -17.253372 -6.865305 111.511801 -1.666132 -9.086279 1.874017 5.289769 -7.625477 24.569883 -4.344304 -2.630321 0.000000 0.000000 0.000000 0.000000 0.000000 0.000000 7.764084 -6.297241 5.342894 7.588979 -2.724409 0.433661 0.000000 0.000000 0.000000 0.000000 0.000000 0.000000 23.702024 -1.087639 7.654725 -2.026759 -0.027820 12.305833 0.000000 0.000000 0.000000 -18.637195 2.177124 -9.620727 -28.571410 0.666255 -2.860258 0.000000 0.000000 0.000000
1.711049 60.000000 3.909007 -0.048651 -0.576044 -3.608218 -0.048651 -0.576044 -3.608218 173.910821 -0.934173 -21.524385 -23.760369 0.233575 3.267327 111.657441 -6.939169 -35.887448 2.161892 5.500052 -7.810414 19.484395 -1.247157 -2.002327 0.000000 0.000000 0.000000 0.000000 0.000000 0.000000 1.898398 0.147144 -1.673741 9.871862 0.519648 0.561097 0.000000 0.000000 0.000000 0.000000 0.000000 0.000000 12.725144 -0.832409 6.627877 -5.756902 -0.518363 13.499289 0.000000 0.000000 0.000000 -18.925303 2.148663 -12.616877 -25.158946 1.722753 0.279373 0.000000 0.000000 0.000000
2.164120 60.000000 3.211013 2.971619 -0.317770 -2.073728 2.971619 -0.317770 -2.073728 175.482458 -6.671339 -135.877776 -21.483286 8.541969 8.390708 112.310123 -13.065728 -61.094008 4.548146 4.278535 -4.486860 23.451911 0.145633 -2.460147 -160.448822 43.062618 -124.110505 0.000000 0.000000 0.000000 -2.763693 1.231644 -0.339415 12.401206 2.152166 0.740428 0.000000 0.000000 0.000000 0.000000 0.000000 0.000000 4.221932 -0.315691 3.199655 -6.410151 -0.635833 13.483828 0.000000 0.000000 0.000000 -21.336461 2.242950 -11.885192 -20.382858 1.687747 1.160257 0.000000 0.000000 0.000000
3.084404 60.000000 4.385714 4.788507 0.086277 1.215588 4.788507 0.086277 1.215588 174.936616 -11.364771 -154.480263 -18.698076 14.240133 12.299548 108.162124 -16.434208 -59.614763 11.593012 3.084850 1.668155 27.555756 1.833409 -2.877138 159.123515 29.826293 -122.584275 0.000000 0.000000 0.000000 -7.691342 0.783151 4.762380 10.947301 3.539440 0.687036 0.000000 0.000000 0.000000 0.000000 0.000000 0.000000 1.198871 0.415494 -2.953179 -2.179070 0.076009 17.011746 0.000000 0.000000 0.000000 -25.151994 2.405129 -9.742176 -15.030539 1.339175 1.437071 0.000000 0.000000 0.000000
2.495143 60.000000 4.770275 5.409916 0.408067 4.264097 5.409916 0.408067 4.264097 174.193999 -13.264988 -155.425658 -19.043450 16.419153 13.801112 100.270772 -12.580912 -35.636065 17.420421 5.598867 1.209815 27.370475 3.637290 -2.846207 161.542115 29.074520 -124.198908 0.000000 0.000000 0.000000 -9.019121 0.631275 6.349685 11.789141 3.622251 0.758100 0.000000 0.000000 0.000000 0.000000 0.000000 0.000000 -2.059198 0.418128 -5.267718 -0.154560 0.368000 21.059476 0.000000 0.000000 0.000000 -23.346008 2.420512 -8.582786 -12.709497 1.312662 1.999588 0.000000 0.000000 0.000000
